# Blender v2.79 (sub 0) OBJ File: 'composter full.blend'
# www.blender.org
o Cube
v 0.500000 -0.500000 -0.500000
v 0.500000 -0.500000 0.500000
v -0.500000 -0.500000 -0.500000
v -0.500000 -0.500000 0.500000
v -0.500000 0.500000 -0.500000
v 0.500000 0.500000 -0.500000
v -0.500000 0.500000 0.500000
v 0.437500 0.500000 0.437500
v -0.437500 0.500000 0.437500
v -0.437500 0.500000 -0.437500
v 0.437500 0.500000 -0.437500
v 0.437500 0.375000 0.437500
v -0.437500 0.375000 0.437500
v -0.437500 0.375000 -0.437500
v 0.437500 0.375000 -0.437500
v 0.500000 0.500000 0.500000
vt 0.000000 0.000000
vt 0.000000 1.000000
vt 1.000000 1.000000
vt 1.000000 0.000000
vt 0.000000 0.000000
vt 0.000000 1.000000
vt 1.000000 1.000000
vt 1.000000 0.000000
vt 0.000000 1.000000
vt 0.000000 0.000000
vt 1.000000 0.000000
vt 1.000000 1.000000
vt 0.000000 1.000000
vt 1.000000 1.000000
vt 0.937500 0.937500
vt 0.937500 0.062500
vt 1.000000 0.000000
vt 0.937500 1.000000
vt 0.062500 1.000000
vt 0.062500 0.875000
vt 0.937500 0.875000
vt 0.062500 0.062500
vt 0.000000 0.000000
vt 0.062500 0.937500
vt 0.937500 1.000000
vt 0.937500 0.875000
vt 0.062500 1.000000
vt 0.937500 1.000000
vt 0.937500 0.875000
vt 0.062500 0.875000
vt 0.062500 1.000000
vt 0.062500 0.875000
vt 0.062500 0.062500
vt 0.937500 0.062500
vt 0.937500 0.937500
vt 0.062500 0.937500
vn 1.0000 0.0000 0.0000
vn 0.0000 0.0000 1.0000
vn -1.0000 0.0000 0.0000
vn 0.0000 0.0000 -1.0000
vn 0.0000 -1.0000 0.0000
vn 0.0000 1.0000 0.0000
g Cube_Cube_wood
s off
f 1/1/1 6/2/1 16/3/1 2/4/1
f 2/5/2 16/6/2 7/7/2 4/8/2
f 4/8/3 7/7/3 5/9/3 3/10/3
f 3/11/4 5/12/4 6/2/4 1/1/4
f 2/13/5 4/14/5 3/11/5 1/1/5
f 9/15/6 10/16/6 5/17/6 7/7/6
f 8/18/3 11/19/3 15/20/3 12/21/3
f 10/16/6 11/22/6 6/23/6 5/17/6
f 16/6/6 6/23/6 11/22/6 8/24/6
f 11/19/2 10/25/2 14/26/2 15/20/2
f 10/27/1 9/28/1 13/29/1 14/30/1
f 9/28/4 8/31/4 12/32/4 13/29/4
f 7/7/6 16/6/6 8/24/6 9/15/6
g Cube_Cube_dirt
f 15/33/6 14/34/6 13/35/6 12/36/6
