# Blender v2.79 (sub 0) OBJ File: 'composter empty.blend'
# www.blender.org
o Cube
v 0.500000 -0.500000 -0.500000
v 0.500000 -0.500000 0.500000
v -0.500000 -0.500000 -0.500000
v -0.500000 -0.500000 0.500000
v -0.500000 0.500000 -0.500000
v 0.500000 0.500000 -0.500000
v -0.500000 0.500000 0.500000
v 0.437500 0.500000 0.437500
v -0.437500 0.500000 0.437500
v -0.437500 0.500000 -0.437500
v 0.437500 0.500000 -0.437500
v 0.437500 -0.375000 0.437500
v -0.437500 -0.375000 0.437500
v -0.437500 -0.375000 -0.437500
v 0.437500 -0.375000 -0.437500
v 0.500000 0.500000 0.500000
vt 0.000000 0.000000
vt 0.000000 1.000000
vt 1.000000 1.000000
vt 1.000000 0.000000
vt 0.000000 0.000000
vt 0.000000 1.000000
vt 1.000000 1.000000
vt 1.000000 0.000000
vt 0.000000 1.000000
vt 0.000000 0.000000
vt 1.000000 0.000000
vt 1.000000 1.000000
vt 0.000000 1.000000
vt 1.000000 1.000000
vt 0.937500 0.937500
vt 0.937500 0.062500
vt 1.000000 0.000000
vt 0.937500 1.000000
vt 0.062500 1.000000
vt 0.062500 0.125000
vt 0.937500 0.125000
vt 0.062500 0.062500
vt 0.000000 0.000000
vt 0.062500 0.937500
vt 0.062500 0.062500
vt 0.937500 0.062500
vt 0.937500 0.937500
vt 0.062500 0.937500
vt 0.937500 1.000000
vt 0.937500 0.125000
vt 0.062500 1.000000
vt 0.937500 1.000000
vt 0.937500 0.125000
vt 0.062500 0.125000
vt 0.062500 1.000000
vt 0.062500 0.125000
vn 1.0000 0.0000 0.0000
vn 0.0000 0.0000 1.0000
vn -1.0000 0.0000 0.0000
vn 0.0000 0.0000 -1.0000
vn 0.0000 -1.0000 0.0000
vn 0.0000 1.0000 0.0000
g Cube_Cube_wood
s off
f 1/1/1 6/2/1 16/3/1 2/4/1
f 2/5/2 16/6/2 7/7/2 4/8/2
f 4/8/3 7/7/3 5/9/3 3/10/3
f 3/11/4 5/12/4 6/2/4 1/1/4
f 2/13/5 4/14/5 3/11/5 1/1/5
f 9/15/6 10/16/6 5/17/6 7/7/6
f 8/18/3 11/19/3 15/20/3 12/21/3
f 10/16/6 11/22/6 6/23/6 5/17/6
f 16/6/6 6/23/6 11/22/6 8/24/6
f 15/25/6 14/26/6 13/27/6 12/28/6
f 11/19/2 10/29/2 14/30/2 15/20/2
f 10/31/1 9/32/1 13/33/1 14/34/1
f 9/32/4 8/35/4 12/36/4 13/33/4
f 7/7/6 16/6/6 8/24/6 9/15/6
